<svg width="281" height="340" viewBox="0 0 281 340" fill="none" xmlns="http://www.w3.org/2000/svg">
<path d="M133.744 295.451C109.102 294.119 85.4441 285.138 65.9261 269.708C46.4082 254.278 31.9587 233.131 24.5059 209.09C17.0531 185.049 16.9513 159.257 24.2142 135.155C31.4771 111.053 45.7592 89.7885 65.1549 74.1977V51.4337C39.9629 67.7424 20.5174 91.8379 9.64576 120.217C-1.22592 148.596 -2.9571 179.78 4.70391 209.233C12.3649 238.687 29.0187 264.876 52.2441 283.992C75.4694 303.108 104.056 314.155 133.846 315.527L133.744 295.451Z" fill="white"/>
<path d="M147.838 29.448L147.776 47.9031C172.12 49.477 195.435 58.516 214.676 73.8399C233.917 89.1639 248.19 110.061 255.632 133.802C263.073 157.544 263.337 183.027 256.39 206.924C249.442 230.821 235.606 252.023 216.687 267.76V292.378C241.405 275.875 260.392 251.816 270.94 223.633C281.488 195.45 283.058 164.582 275.425 135.434C267.792 106.285 251.348 80.3441 228.436 61.3119C205.525 42.2796 177.318 31.128 147.838 29.448V29.448Z" fill="white"/>
<path d="M78.69 42.2863V224.455H133.437V0L78.69 42.2863Z" fill="white"/>
<path d="M202.531 298.516V109.929H147.783V340L202.531 298.516Z" fill="white"/>
</svg>
